<svg version="1.0" xmlns="http://www.w3.org/2000/svg" viewBox="0 0 512 512">
  <path fill="currentColor" d="M178.5 2.5c-2.3 2.2-2.5 3.2-2.5 12V24h-59.1l-2.4 2.5-2.5 2.4V112H52.9l-2.4 2.5-2.5 2.4V155c0 31.4-.2 38-1.4 38-.7 0-4.5 1.6-8.3 3.5-8.6 4.3-14.4 10.3-18.6 19.3-2.9 6.1-3.2 7.6-3.2 16.2s.3 10.1 3.2 16.2c4.2 9 10 15 18.6 19.3 3.8 1.9 7.6 3.5 8.3 3.5 1.2 0 1.4 6.6 1.4 38v38.1l2.5 2.4 2.4 2.5H176v9.5c0 8.8.2 9.8 2.5 12l2.4 2.5H248v12.5c0 11.4-.2 12.5-1.8 12.5-3.6 0-14.3 4.3-20.2 8.1-7 4.5-14.1 11.6-17.8 17.8-18.7 31.7-3.7 70.7 31.8 82.7 7.6 2.6 24.4 2.6 32 0 18.9-6.4 33.1-21 37.7-38.8l1.7-6.8H403.1l2.4-2.5 2.5-2.4V240h51.1l2.4-2.5 2.5-2.4V197c0-31.4.2-38 1.4-38 .7 0 4.5-1.6 8.3-3.5 8.6-4.3 14.4-10.3 18.6-19.3 2.9-6.1 3.2-7.6 3.2-16.2s-.3-10.1-3.2-16.2c-4.2-9-10-15-18.6-19.3-3.8-1.9-7.6-3.5-8.3-3.5-1.2 0-1.4-4.7-1.4-26V28.9l-2.5-2.4-2.4-2.5H336v-9.5c0-8.8-.2-9.8-2.5-12L331.1 0H180.9l-2.4 2.5zM320 32v16H192V16h128v16zM176 49.5c0 8.8.2 9.8 2.5 12l2.4 2.5H248v24h-67.1l-2.4 2.5c-2.3 2.2-2.5 3.2-2.5 12v9.5h-48V40h48v9.5zm272 11c0 16.7-.3 20.5-1.4 20.5-.7 0-4.5 1.6-8.3 3.5-8.6 4.3-14.4 10.3-18.6 19.3-2.9 6.1-3.2 7.6-3.2 16.2s.3 10.1 3.2 16.2c4.2 9 10 15 18.6 19.3 3.8 1.9 7.6 3.5 8.3 3.5 1.2 0 1.4 5.7 1.4 32.5V224H315.5l-25.7-25.7-25.8-25.8V152h67.1l2.4-2.5 2.5-2.4V92.9l-2.5-2.4-2.4-2.5H264V64h67.1l2.4-2.5c2.3-2.2 2.5-3.2 2.5-12V40h112v20.5zm15.4 36.7C472 99.8 480 110.8 480 120c0 12.4-11.6 24-24 24-6.3 0-11.4-2.3-16.5-7.5-10.2-10.1-10.2-22.9 0-33 7-7.1 14.5-9 23.9-6.3zM320 120v16H192v-32h128v16zm-144 17.5c0 8.8.2 9.8 2.5 12l2.4 2.5H248v20.5l-25.7 25.7-25.8 25.8H176v16h20.5l25.7 25.7 25.8 25.8V312h-67.1l-2.4 2.5c-2.3 2.2-2.5 3.2-2.5 12v9.5H64v-32.5c0-26.8.2-32.5 1.4-32.5.7 0 4.5-1.6 8.3-3.5 8.6-4.3 14.4-10.3 18.6-19.3 2.9-6.1 3.2-7.6 3.2-16.2s-.3-10.1-3.2-16.2c-4.2-9-10-15-18.6-19.3-3.8-1.9-7.6-3.5-8.3-3.5-1.2 0-1.4-5.7-1.4-32.5V128h112v9.5zm103 72 22.5 22.5-22.8 22.8-22.7 22.7-22.7-22.7-22.8-22.8 22.5-22.5c12.4-12.4 22.7-22.5 23-22.5.3 0 10.6 10.1 23 22.5zm-215.6-.3c5.5 1.6 13.8 9.9 15.4 15.4 2.8 9.4.8 16.9-6.3 23.9-10.1 10.2-22.9 10.2-33 0-10.2-10.1-10.2-22.9 0-33 7-7.1 14.5-9 23.9-6.3zM392 344v104h-80.5l-1.3-5.2c-4.5-19.4-21.6-36.5-40.9-41l-5.3-1.3V376h67.1l2.4-2.5 2.5-2.4v-54.2l-2.5-2.4-2.4-2.5H264v-20.5l25.7-25.7 25.8-25.8H392v104zm-72 0v16H192v-32h128v16zm-47.6 75.8c9.1 4.2 14.9 10 19.4 19 3.5 7.2 3.7 8.1 3.7 17.2s-.2 10-3.7 17.2c-4.5 9.1-10.3 14.7-19.6 19.1-6.1 2.9-7.6 3.2-16.2 3.2s-10.1-.3-16.2-3.2c-9.3-4.4-15.1-10-19.6-19.1-3.5-7.2-3.7-8.1-3.7-17.1 0-8.7.3-10.2 3.2-16.3 4-8.5 9.7-14.7 17.2-18.6 7.8-4.2 12.2-5.2 21.3-4.8 6.1.3 9.2 1.1 14.2 3.4z"/>
  <path fill="currentColor" d="M112 232v8h16v-16h-16v8zM144 232v8h16v-16h-16v8z"/>
</svg>
