<svg xmlns="http://www.w3.org/2000/svg" version="1.0" viewBox="0 0 447 395">
  <path fill="currentColor" d="M28 1.2C17 3.9 7.8 11.7 2.8 22.3l-2.8 6v117l2.7 5.7A38.24 38.24 0 0 0 27 171.7c2.2.6 43.6 6.3 92 12.6 48.4 6.4 89.3 11.9 90.9 12.3 1.9.5-25.1 4.3-81.5 11.6-46.4 5.9-88.6 11.4-93.7 12.2-15.7 2.3-26.1 9.5-32 22.2L0 248.3v119l2.7 5.7c7.3 15.6 23.9 24.7 39.9 21.8 4.3-.8 56.7-22.9 170.8-72.2 90.5-39 175.6-75.8 189.1-81.5 13.5-5.8 26.5-12 29-13.8 10-7 15.5-18 15.4-30.5-.2-10.9-3.1-17.9-10.8-25.6l-6.1-6-190-81.4C135.5 39.1 47.5 1.9 44.5 1.2 37.9-.4 34.6-.4 28 1.2z"/>
</svg>
