<svg xmlns="http://www.w3.org/2000/svg" viewBox="0 0 640 512">
  <path fill="currentColor" d="M93.13 257.7c-21.88 17.4-40.13 55.8-54.5 97.4l60.37-22c5.75-2.13 10.62 4.75 6.63 9.5L11 454.7c-7.25 31.4-11 55.5-11 55.5s206.6 13.62 266.6-34.12c60-47.87 76.63-150.1 76.63-150.1L256.5 216.7s-103.4-7.6-163.37 41zM633.2 12.34a32.06 32.06 0 0 0-44.91-5.62l-225.7 175.6-34.99-44.06a11.04 11.04 0 0 0-18.6 2.24l-25.2 53.6 86.75 109.2 58.75-12.5c8-1.63 11.38-11.12 6.38-17.5l-33.2-41.79 225.2-175.2c13.92-9.93 16.42-30.04 5.52-43.97z"/>
</svg>
