<svg version="1.0" xmlns="http://www.w3.org/2000/svg" viewBox="0 0 512 512">
  <path fill="currentColor" d="M6.5.9c-1.1.5-2.9 1.9-4 3.1-2 2.2-2 3.6-2 252.1V506l2.8 2.7 2.7 2.8 46 .3c51.4.3 50.8.4 53.6-6.5 1.8-4.1.6-8.9-2.7-11.9-2-1.8-4.8-1.9-41.8-2.4l-39.6-.5-.3-63.8L21 363h42.9l.3 39.5.3 39.5 2.8 2.7 2.7 2.8 110 .3c122.4.3 114.6.7 117.6-6.5 1.8-4.1.6-8.9-2.7-11.9-2-1.8-6.3-1.9-105.8-2.4l-103.6-.5v-149l21.2-.3 21.2-.2.3 50.5.3 50.5 2.8 2.7 2.7 2.8h244l2.7-2.8 2.8-2.7V262.2l-2.4-2.6c-3.3-3.5-8.5-4.4-12.7-2.1-1.8 1-3.6 2.5-4.1 3.4-.4.9-1 24.1-1.3 51.6l-.5 50h-213l-.2-70.9c-.3-78.7.1-74.3-7-77.2-4.7-2-9.7-.4-12.4 4-1.7 2.7-1.9 5.1-1.9 20.3v17.2l-29 .3-29 .3-2.7 2.8-2.8 2.7-.3 39.5-.3 39.5H21l.2-159.8.3-159.7 53.3-.3L128 21v42.9l-29 .3-29 .3-2.7 2.8-2.8 2.7v115.8l2.4 2.6c3.3 3.5 8.5 4.4 12.7 2.1 1.8-1 3.6-2.5 4.1-3.4.4-.9 1-24.1 1.3-51.6l.5-50 70.9-.3c78.7-.2 74.3.2 77.2-6.9 2-4.7.4-9.7-4-12.4-2.9-1.8-5.4-1.9-41.9-1.9H149l.2-21.3.3-21.2 114-.5c62.7-.3 114.7-.9 115.6-1.3.9-.5 2.4-2.3 3.4-4.1 2.3-4.2 1.4-9.4-2.1-12.7L377.8.5 193.2.3C91.6.2 7.6.5 6.5.9z"/>
  <path fill="currentColor" d="M455 .7c-3.1 1.2-6 4.7-6.6 8.1-.7 3.9 1.6 9.5 4.5 10.9.9.4 9.7 1 19.6 1.3l18 .5.3 53.2.2 53.3h-42.9l-.3-29-.3-29-2.8-2.7-2.7-2.8-78-.3c-86.9-.3-82.7-.6-85.6 6.5-1.9 4.3-.5 9.3 3.3 12.3 2.4 1.8 4 2 20.4 2H320v43l-92.9.2-92.9.3-2.6 2.4c-5.2 4.9-4 14.5 2.3 17 1.8.8 37.8 1.2 115.6 1.4l113 .2.5 18c.3 9.9.9 18.7 1.3 19.6.5.9 2.3 2.4 4.1 3.4 4.2 2.3 9.4 1.4 12.7-2.1l2.4-2.6V134l-2.8-2.7-2.7-2.8-18.5-.3-18.5-.3.2-21.2.3-21.2h85l.5 29.2c.5 28.8.5 29.3 2.8 31.5 2.2 2.3 2.7 2.3 31.5 2.8l29.2.5v341l-157.3.5-157.4.5-2.4 2.8c-4.3 5-2.8 13.1 3 16.2 2.8 1.5 16.6 1.6 166.3 1.3l163.3-.3 2.7-2.8 2.8-2.7V6l-2.8-2.7L506 .5 481.2.3c-13.6-.1-25.4.1-26.2.4z"/>
  <path fill="currentColor" d="M198.5 192.9c-1.1.5-2.9 1.9-4 3.1-2 2.2-2 3.6-2 60.1V314l2.8 2.7 2.7 2.8h116l2.7-2.8c2.8-2.7 2.8-3 3.1-16.6.3-11.4.1-14.5-1.3-17.1a10.2 10.2 0 0 0-12-5c-5.5 1.8-6.9 4.3-7.5 12.9l-.5 7.6h-85v-85l50-.5c27.5-.3 50.7-.9 51.6-1.3.9-.5 2.4-2.3 3.4-4.1 2.3-4.2 1.4-9.4-2.1-12.7l-2.6-2.4-56.6-.2c-31.2-.1-57.6.2-58.7.6zM433.5 214.4c-6.4 2.8-6-5.1-6.5 108.5l-.5 103.6-29.3.5-29.4.5-2.4 2.8c-4.3 5-2.8 13.1 3 16.2 2.7 1.4 7.1 1.6 38.3 1.3l35.3-.3 2.7-2.8 2.8-2.7.3-110c.3-122.2.7-114.7-6.3-117.6-4.1-1.7-4.2-1.7-8 0z"/>
</svg>
